<svg width="70" height="60" viewBox="0 0 70 60" xmlns="http://www.w3.org/2000/svg"><title>Slice 1</title><g fill="#FFF" fill-rule="evenodd"><path d="M52.709 54.458c-.715 0-1.601-.224-2.18-.656v-2.45c.596.414 1.175.69 1.925.69.818 0 1.465-.553 1.465-1.415 0-1.001-.784-1.38-1.5-1.898-1.463-1-2.366-1.968-2.366-3.866 0-2.053 1.174-3.83 3.355-3.83.817 0 1.55.224 2.248.637v2.504c-.511-.45-1.141-.83-1.84-.83-.783 0-1.278.484-1.278 1.278 0 2.139 3.867 2.26 3.867 5.78 0 2.314-1.311 4.056-3.696 4.056zm-3.338-.207h-2.403L43.836 46.4l-.034.034.119 1.31.017.537v5.97H41.4V41.24h2.436l3.167 7.85.034-.034c-.153-.62-.205-1.294-.205-1.967v-5.85h2.539v13.012zm-8.856 0H35.37V41.24h5.11v2.415h-2.572v2.83h2.265v2.416h-2.265v2.934h2.606v2.416zm-5.976 0h-5.143V41.24h5.11v2.415h-2.573v2.83h2.266v2.416h-2.266v2.934h2.606v2.416zm-8.313 0l-2.231-6.005h-.035v6.005h-2.537V41.24h2.554c1.619 0 4.514.173 4.514 3.727 0 1.433-.563 2.657-1.823 3.365L28.9 54.25h-2.674zm-5.664-6.23c0 2.76-.664 6.437-4.121 6.437-3.458 0-4.582-3.762-4.582-6.643 0-3.003.954-6.782 4.582-6.782 1.958 0 3.235 1.242 3.78 3.089l-2.47.965c-.118-.655-.323-1.673-1.293-1.673-1.721-.104-1.89 3.105-1.89 4.33 0 1.347.084 4.333 1.958 4.333 1.294 0 1.498-1.761 1.498-2.658h-1.618v-2.415h4.156v1.018zm3.666-22.658h6.565v2.425h-2.018v10.636h-2.548V27.788h-2v-2.425zm7.077 0h2.549v5.11h2.58v-5.11h2.548v13.06h-2.547v-5.526h-2.581v5.527h-2.55V25.363zm8.53 0h5.129v2.425h-2.582v2.84h2.274v2.426h-2.274v2.945h2.617v2.425h-5.164V25.363zm-5.28-22.31L2.67 58.384l63.89-.076L34.555 3.054z"/><path d="M24.3 43.362h-.34v3.47l.443.015c1.158 0 1.618-.794 1.618-1.864 0-.93-.443-1.69-1.721-1.62"/><path d="M34.553 1.778l33.113 57.166-66.102.08L34.553 1.778zM34.554 0L0 59.85h69.107L34.554 0z"/></g></svg>